<svg width="1024" height="1024" viewBox="0 0 1024 1024" fill="none" xmlns="http://www.w3.org/2000/svg">
<rect width="1024" height="1024" fill="url(#paint0_linear_94_2284)"/>
<path fill-rule="evenodd" clip-rule="evenodd" d="M705 266.254V369.945C705 379.546 699.239 385.307 689.638 385.307H593.628C583.067 385.307 578.267 379.546 578.267 369.945V293.137C578.267 268.175 564.825 254.733 539.863 254.733H489.938C464.015 254.733 451.534 268.175 451.534 293.137V419.91L387.224 484.22L320 416.995V266.254C320 176.005 368.965 128 459.214 128H566.746C656.035 128 705 176.005 705 266.254ZM358.247 513.197L320 474.949V551.444L358.247 513.197ZM320 609.398L387.224 542.174L451.534 606.483V730.943C451.534 756.865 464.975 769.347 489.938 769.347H539.863C564.825 769.347 578.267 756.865 578.267 730.943V654.135C578.267 644.534 583.067 638.773 593.628 638.773H689.638C699.239 638.773 705 644.534 705 654.135V757.826C705 848.075 656.035 896.08 566.746 896.08H459.214C368.965 896.08 320 848.075 320 757.826V609.398ZM416.202 513.197L451.534 477.865V548.529L416.202 513.197Z" fill="white"/>
<defs>
<linearGradient id="paint0_linear_94_2284" x1="57.4999" y1="-222" x2="962" y2="1297.5" gradientUnits="userSpaceOnUse">
<stop stop-color="#FF8000"/>
<stop offset="0.25" stop-color="#FF4F00"/>
<stop offset="0.5" stop-color="#DB0043"/>
<stop offset="0.75" stop-color="#8F0046"/>
<stop offset="1" stop-color="#8F0046"/>
</linearGradient>
</defs>
</svg>
